<svg width="55" height="50" viewBox="0 0 55 50" fill="none" xmlns="http://www.w3.org/2000/svg">
<mask id="mask0" mask-type="alpha" maskUnits="userSpaceOnUse" x="35" y="11" width="20" height="4">
<path fill-rule="evenodd" clip-rule="evenodd" d="M35.8003 11.6883H54.5615V14.9351H35.8003V11.6883Z" fill="white"/>
</mask>
<g mask="url(#mask0)">
<path fill-rule="evenodd" clip-rule="evenodd" d="M52.9441 14.9351H37.4179C36.5244 14.9351 35.8003 14.2084 35.8003 13.3117C35.8003 12.4149 36.5244 11.6883 37.4179 11.6883H52.9441C53.8377 11.6883 54.5618 12.4149 54.5618 13.3117C54.5618 14.2084 53.8377 14.9351 52.9441 14.9351Z" fill="#FFD439"/>
</g>
<path fill-rule="evenodd" clip-rule="evenodd" d="M25.2822 14.9351H2.38474C1.49115 14.9351 0.76709 14.2084 0.76709 13.3117C0.76709 12.4149 1.49115 11.6883 2.38474 11.6883H25.2822C26.1758 11.6883 26.8999 12.4149 26.8999 13.3117C26.8999 14.2084 26.1758 14.9351 25.2822 14.9351Z" fill="#FFD439"/>
<path fill-rule="evenodd" clip-rule="evenodd" d="M50.0161 9.09091H11.7627C10.8691 9.09091 10.145 8.36428 10.145 7.46753C10.145 6.57078 10.8691 5.84415 11.7627 5.84415H50.0161C50.9097 5.84415 51.6338 6.57078 51.6338 7.46753C51.6338 8.36428 50.9097 9.09091 50.0161 9.09091Z" fill="#FFD439"/>
<path fill-rule="evenodd" clip-rule="evenodd" d="M41.5749 3.24675H9.19089C8.2973 3.24675 7.57324 2.52013 7.57324 1.62338C7.57324 0.726623 8.2973 0 9.19089 0H41.5749C42.4685 0 43.1925 0.726623 43.1925 1.62338C43.1925 2.52013 42.4685 3.24675 41.5749 3.24675Z" fill="#FFD439"/>
<path fill-rule="evenodd" clip-rule="evenodd" d="M52.9441 20.7792H42.3789C41.4853 20.7792 40.7612 20.0526 40.7612 19.1558C40.7612 18.2591 41.4853 17.5325 42.3789 17.5325H52.9441C53.8376 17.5325 54.5617 18.2591 54.5617 19.1558C54.5617 20.0526 53.8376 20.7792 52.9441 20.7792Z" fill="#FFD439"/>
<path fill-rule="evenodd" clip-rule="evenodd" d="M25.2826 20.7792H8.62985C7.73627 20.7792 7.01221 20.0526 7.01221 19.1558C7.01221 18.2591 7.73627 17.5325 8.62985 17.5325H25.2826C26.1761 17.5325 26.9002 18.2591 26.9002 19.1558C26.9002 20.0526 26.1761 20.7792 25.2826 20.7792Z" fill="#FFD439"/>
<path fill-rule="evenodd" clip-rule="evenodd" d="M50.7561 26.6234H36.6987C35.8058 26.6234 35.0811 25.8968 35.0811 25C35.0811 24.1032 35.8058 23.3766 36.6987 23.3766H50.7561C51.6496 23.3766 52.3737 24.1032 52.3737 25C52.3737 25.8968 51.6496 26.6234 50.7561 26.6234Z" fill="#FFD439"/>
<path fill-rule="evenodd" clip-rule="evenodd" d="M25.2823 26.6234H14.4531C13.5595 26.6234 12.8354 25.8968 12.8354 25C12.8354 24.1032 13.5595 23.3766 14.4531 23.3766H25.2823C26.1759 23.3766 26.8999 24.1032 26.8999 25C26.8999 25.8968 26.1759 26.6234 25.2823 26.6234Z" fill="#FFD439"/>
<path fill-rule="evenodd" clip-rule="evenodd" d="M44.6853 32.4675H8.62985C7.73627 32.4675 7.01221 31.7409 7.01221 30.8442C7.01221 29.9474 7.73627 29.2208 8.62985 29.2208H44.6853C45.5789 29.2208 46.3029 29.9474 46.3029 30.8442C46.3029 31.7409 45.5789 32.4675 44.6853 32.4675Z" fill="#FFD439"/>
<path fill-rule="evenodd" clip-rule="evenodd" d="M25.5336 38.3117H1.61765C0.724059 38.3117 0 37.5851 0 36.6883C0 35.7916 0.724059 35.0649 1.61765 35.0649H25.5336C26.4272 35.0649 27.1512 35.7916 27.1512 36.6883C27.1512 37.5851 26.4272 38.3117 25.5336 38.3117Z" fill="#FFD439"/>
<path fill-rule="evenodd" clip-rule="evenodd" d="M25.5336 44.1558H10.2915C9.39789 44.1558 8.67383 43.4292 8.67383 42.5325C8.67383 41.6357 9.39789 40.9091 10.2915 40.9091H25.5336C26.4272 40.9091 27.1512 41.6357 27.1512 42.5325C27.1512 43.4292 26.4272 44.1558 25.5336 44.1558Z" fill="#FFD439"/>
<path fill-rule="evenodd" clip-rule="evenodd" d="M25.5334 50H14.646C13.7524 50 13.0283 49.2734 13.0283 48.3766C13.0283 47.4799 13.7524 46.7533 14.646 46.7533H25.5334C26.427 46.7533 27.151 47.4799 27.151 48.3766C27.151 49.2734 26.427 50 25.5334 50Z" fill="#FFD439"/>
</svg>
