<svg width="103" height="94" viewBox="0 0 103 94" fill="none" xmlns="http://www.w3.org/2000/svg">
<g opacity="0.2">
<rect x="2" y="2" width="69.5745" height="47.3094" rx="3" stroke="white" stroke-width="2.12766"/>
<rect x="30.564" y="49.3094" width="12.4362" height="7.95721" stroke="white" stroke-width="2.12766"/>
<path d="M2 39.183H71.5745" stroke="white" stroke-width="2.12766"/>
<path d="M32.5532 44.1669H41.0213" stroke="white" stroke-width="2.12766"/>
<path d="M23.3828 57.2772H50.1913" stroke="white" stroke-width="2.12766"/>
<rect x="9.1167" y="9.04724" width="5.40426" height="5.37535" stroke="white" stroke-width="2.12766"/>
<path d="M20.085 11.7349H62.6594" stroke="white" stroke-width="2.12766"/>
<rect x="9.1167" y="18.8138" width="5.40426" height="5.37535" stroke="white" stroke-width="2.12766"/>
<path d="M20.085 21.5121H62.6594" stroke="white" stroke-width="2.12766"/>
<rect x="9.1167" y="28.1996" width="5.40426" height="5.37535" stroke="white" stroke-width="2.12766"/>
<path d="M20.085 30.8872H62.6594" stroke="white" stroke-width="2.12766"/>
</g>
<rect x="44.8828" y="39.6909" width="56.4149" height="52.8329" rx="4" fill="url(#paint0_linear)" stroke="white" stroke-width="2.12766"/>
<path d="M101.287 48.9813H45.0747H101.287Z" fill="url(#paint1_linear)"/>
<path d="M101.287 48.9813H45.0747" stroke="white" stroke-width="2.12766"/>
<path d="M49.4468 44.2938H54.351H49.4468Z" fill="url(#paint2_linear)"/>
<path d="M49.4468 44.2938H54.351" stroke="white" stroke-width="2.12766"/>
<ellipse cx="72.7662" cy="65.3295" rx="8.09575" ry="8.05244" fill="#2E2D40" stroke="white" stroke-width="2.12766"/>
<path d="M72.7663 77.3395C68.8766 77.3395 65.1468 78.8793 62.4004 81.619C59.6539 84.3586 58.1167 88.0729 58.128 91.9418H87.4046C87.4159 88.0729 85.8786 84.3586 83.1322 81.619C80.3858 78.8793 76.656 77.3395 72.7663 77.3395Z" fill="#2E2D40" stroke="white" stroke-width="2.12766"/>
<defs>
<linearGradient id="paint0_linear" x1="15.0864" y1="39.3408" x2="47.8708" y2="94.5854" gradientUnits="userSpaceOnUse">
<stop stop-color="#FFCC01"/>
<stop offset="1" stop-color="#FFB502"/>
</linearGradient>
<linearGradient id="paint1_linear" x1="45.0747" y1="49.5104" x2="101.287" y2="49.5104" gradientUnits="userSpaceOnUse">
<stop stop-color="#FFCC01"/>
<stop offset="1" stop-color="#FFB502"/>
</linearGradient>
<linearGradient id="paint2_linear" x1="49.4468" y1="44.8229" x2="54.351" y2="44.8229" gradientUnits="userSpaceOnUse">
<stop stop-color="#FFCC01"/>
<stop offset="1" stop-color="#FFB502"/>
</linearGradient>
</defs>
</svg>
